<svg xmlns="http://www.w3.org/2000/svg" viewBox="0 0 400 400" width="400" height="400">
  <defs>
    <linearGradient id="backpackGradient" x1="0%" y1="0%" x2="100%" y2="100%">
      <stop offset="0%" style="stop-color:#1a1a1a;stop-opacity:1" />
      <stop offset="100%" style="stop-color:#333333;stop-opacity:1" />
    </linearGradient>
    <linearGradient id="logoGradient" x1="0%" y1="0%" x2="100%" y2="100%">
      <stop offset="0%" style="stop-color:#ff6b35;stop-opacity:1" />
      <stop offset="100%" style="stop-color:#ff4500;stop-opacity:1" />
    </linearGradient>
    <linearGradient id="zipperGradient" x1="0%" y1="0%" x2="100%" y2="100%">
      <stop offset="0%" style="stop-color:#888;stop-opacity:1" />
      <stop offset="100%" style="stop-color:#555;stop-opacity:1" />
    </linearGradient>
  </defs>
  
  <!-- Background -->
  <rect width="400" height="400" fill="#f8f9fa"/>
  
  <!-- Main Backpack Body -->
  <rect x="120" y="80" width="160" height="240" rx="20" fill="url(#backpackGradient)" stroke="#111" stroke-width="2"/>
  
  <!-- Front Pocket -->
  <rect x="140" y="120" width="120" height="80" rx="15" fill="url(#backpackGradient)" stroke="#111" stroke-width="2"/>
  
  <!-- Side Pockets -->
  <ellipse cx="100" cy="180" rx="25" ry="40" fill="url(#backpackGradient)" stroke="#111" stroke-width="2"/>
  <ellipse cx="300" cy="180" rx="25" ry="40" fill="url(#backpackGradient)" stroke="#111" stroke-width="2"/>
  
  <!-- Straps -->
  <rect x="140" y="70" width="20" height="260" rx="10" fill="#444" stroke="#222" stroke-width="2"/>
  <rect x="240" y="70" width="20" height="260" rx="10" fill="#444" stroke="#222" stroke-width="2"/>
  
  <!-- Strap buckles -->
  <rect x="142" y="100" width="16" height="12" rx="2" fill="url(#zipperGradient)" stroke="#333" stroke-width="1"/>
  <rect x="242" y="100" width="16" height="12" rx="2" fill="url(#zipperGradient)" stroke="#333" stroke-width="1"/>
  
  <!-- Strap padding -->
  <rect x="145" y="120" width="10" height="40" rx="5" fill="#666"/>
  <rect x="245" y="120" width="10" height="40" rx="5" fill="#666"/>
  
  <!-- Main zipper -->
  <rect x="195" y="85" width="10" height="230" fill="url(#zipperGradient)" stroke="#333" stroke-width="1"/>
  <path d="M200 90 L200 310" stroke="#222" stroke-width="2"/>
  
  <!-- Zipper pull -->
  <rect x="190" y="90" width="20" height="8" rx="4" fill="#999" stroke="#333" stroke-width="1"/>
  
  <!-- Front pocket zipper -->
  <rect x="195" y="125" width="10" height="70" fill="url(#zipperGradient)" stroke="#333" stroke-width="1"/>
  <path d="M200 130 L200 190" stroke="#222" stroke-width="2"/>
  
  <!-- Side pocket details -->
  <circle cx="100" cy="170" r="5" fill="#555"/>
  <circle cx="300" cy="170" r="5" fill="#555"/>
  
  <!-- VELOCITY Logo -->
  <g transform="translate(200, 160)">
    <!-- Logo Circle -->
    <circle cx="0" cy="0" r="25" fill="url(#logoGradient)" stroke="#fff" stroke-width="2"/>
    
    <!-- V Letter -->
    <path d="M-12 -10 L-5 10 L0 0 L5 10 L12 -10 L8 -10 L3 5 L0 -2 L-3 5 L-8 -10 Z" fill="white" stroke="#333" stroke-width="0.5"/>
    
    <!-- Speed lines -->
    <path d="M-18 -5 L-13 -5 M-18 0 L-13 0 M-18 5 L-13 5" stroke="white" stroke-width="1" stroke-linecap="round"/>
    <path d="M13 -5 L18 -5 M13 0 L18 0 M13 5 L18 5" stroke="white" stroke-width="1" stroke-linecap="round"/>
  </g>
  
  <!-- VELOCITY Text -->
  <text x="200" y="240" text-anchor="middle" font-family="Arial Black, sans-serif" font-size="12" font-weight="bold" fill="url(#logoGradient)">VELOCITY</text>
  <text x="200" y="255" text-anchor="middle" font-family="Arial, sans-serif" font-size="9" fill="#888">OFFROAD</text>
  
  <!-- Reflective strips -->
  <rect x="125" y="150" width="150" height="3" fill="#ccc" opacity="0.8"/>
  <rect x="125" y="250" width="150" height="3" fill="#ccc" opacity="0.8"/>
  
  <!-- Handle -->
  <rect x="180" y="75" width="40" height="8" rx="4" fill="#444" stroke="#222" stroke-width="1"/>
  <rect x="185" y="77" width="30" height="4" rx="2" fill="#666"/>
  
  <!-- Bottom reinforcement -->
  <rect x="120" y="310" width="160" height="10" rx="5" fill="#111" stroke="#000" stroke-width="1"/>
  
  <!-- Texture pattern -->
  <pattern id="fabricPattern" patternUnits="userSpaceOnUse" width="8" height="8">
    <rect width="8" height="8" fill="none"/>
    <path d="M0 4 L4 0 M4 8 L8 4" stroke="#555" stroke-width="0.5" opacity="0.3"/>
  </pattern>
  <rect x="120" y="80" width="160" height="240" fill="url(#fabricPattern)"/>
  
  <!-- Shadow -->
  <ellipse cx="205" cy="340" rx="70" ry="20" fill="#000" opacity="0.3"/>
</svg>
